<svg viewBox="-16 -32 880 192" width="880" height="192" xmlns="http://www.w3.org/2000/svg"><desc>Generated with https://github.com/Platane/snk</desc><style>:root{--cb:#1b1f230a;--cs:#ff7b00;--ce:#1e293b;--c0:#1e293b;--c1:#334155;--c2:#f97316;--c3:#facc15;--c4:#fde68a}.c{shape-rendering:geometricPrecision;fill:var(--ce);stroke-width:1px;stroke:var(--cb);animation:none 38700ms linear infinite;width:12px;height:12px}@keyframes c0{5.16%{fill:var(--c1)}5.18%,100%{fill:var(--ce)}}.c.c0{fill:var(--c1);animation-name:c0}@keyframes c1{5.42%{fill:var(--c1)}5.44%,100%{fill:var(--ce)}}.c.c1{fill:var(--c1);animation-name:c1}@keyframes c2{5.67%{fill:var(--c1)}5.69%,100%{fill:var(--ce)}}.c.c2{fill:var(--c1);animation-name:c2}@keyframes c3{7.48%{fill:var(--c1)}7.5%,100%{fill:var(--ce)}}.c.c3{fill:var(--c1);animation-name:c3}@keyframes c4{0.51%{fill:var(--c1)}0.53%,100%{fill:var(--ce)}}.c.c4{fill:var(--c1);animation-name:c4}@keyframes c5{4.64%{fill:var(--c1)}4.66%,100%{fill:var(--ce)}}.c.c5{fill:var(--c1);animation-name:c5}@keyframes c6{4.38%{fill:var(--c1)}4.4%,100%{fill:var(--ce)}}.c.c6{fill:var(--c1);animation-name:c6}@keyframes c7{4.12%{fill:var(--c1)}4.14%,100%{fill:var(--ce)}}.c.c7{fill:var(--c1);animation-name:c7}@keyframes c8{5.93%{fill:var(--c1)}5.95%,100%{fill:var(--ce)}}.c.c8{fill:var(--c1);animation-name:c8}@keyframes c9{0.77%{fill:var(--c1)}0.79%,100%{fill:var(--ce)}}.c.c9{fill:var(--c1);animation-name:c9}@keyframes ca{1.02%{fill:var(--c1)}1.04%,100%{fill:var(--ce)}}.c.ca{fill:var(--c1);animation-name:ca}@keyframes cb{3.87%{fill:var(--c1)}3.89%,100%{fill:var(--ce)}}.c.cb{fill:var(--c1);animation-name:cb}@keyframes cc{6.19%{fill:var(--c1)}6.21%,100%{fill:var(--ce)}}.c.cc{fill:var(--c1);animation-name:cc}@keyframes cd{6.97%{fill:var(--c1)}6.99%,100%{fill:var(--ce)}}.c.cd{fill:var(--c1);animation-name:cd}@keyframes ce{1.28%{fill:var(--c1)}1.3%,100%{fill:var(--ce)}}.c.ce{fill:var(--c1);animation-name:ce}@keyframes cf{6.45%{fill:var(--c1)}6.47%,100%{fill:var(--ce)}}.c.cf{fill:var(--c1);animation-name:cf}@keyframes cg{6.71%{fill:var(--c1)}6.73%,100%{fill:var(--ce)}}.c.cg{fill:var(--c1);animation-name:cg}@keyframes ch{1.8%{fill:var(--c1)}1.82%,100%{fill:var(--ce)}}.c.ch{fill:var(--c1);animation-name:ch}@keyframes ci{1.54%{fill:var(--c1)}1.56%,100%{fill:var(--ce)}}.c.ci{fill:var(--c1);animation-name:ci}@keyframes cj{77.25%{fill:var(--c2)}77.27%,100%{fill:var(--ce)}}.c.cj{fill:var(--c2);animation-name:cj}@keyframes ck{3.09%{fill:var(--c1)}3.11%,100%{fill:var(--ce)}}.c.ck{fill:var(--c1);animation-name:ck}@keyframes cl{3.35%{fill:var(--c1)}3.37%,100%{fill:var(--ce)}}.c.cl{fill:var(--c1);animation-name:cl}@keyframes cm{9.81%{fill:var(--c1)}9.83%,100%{fill:var(--ce)}}.c.cm{fill:var(--c1);animation-name:cm}@keyframes cn{10.58%{fill:var(--c1)}10.6%,100%{fill:var(--ce)}}.c.cn{fill:var(--c1);animation-name:cn}@keyframes co{12.39%{fill:var(--c1)}12.41%,100%{fill:var(--ce)}}.c.co{fill:var(--c1);animation-name:co}@keyframes cp{12.65%{fill:var(--c1)}12.67%,100%{fill:var(--ce)}}.c.cp{fill:var(--c1);animation-name:cp}@keyframes cq{72.6%{fill:var(--c2)}72.62%,100%{fill:var(--ce)}}.c.cq{fill:var(--c2);animation-name:cq}@keyframes cr{14.72%{fill:var(--c1)}14.74%,100%{fill:var(--ce)}}.c.cr{fill:var(--c1);animation-name:cr}@keyframes cs{15.75%{fill:var(--c1)}15.77%,100%{fill:var(--ce)}}.c.cs{fill:var(--c1);animation-name:cs}@keyframes ct{30.22%{fill:var(--c1)}30.24%,100%{fill:var(--ce)}}.c.ct{fill:var(--c1);animation-name:ct}@keyframes cu{16.01%{fill:var(--c1)}16.03%,100%{fill:var(--ce)}}.c.cu{fill:var(--c1);animation-name:cu}@keyframes cv{29.45%{fill:var(--c1)}29.47%,100%{fill:var(--ce)}}.c.cv{fill:var(--c1);animation-name:cv}@keyframes cw{16.53%{fill:var(--c1)}16.55%,100%{fill:var(--ce)}}.c.cw{fill:var(--c1);animation-name:cw}@keyframes cx{17.04%{fill:var(--c1)}17.06%,100%{fill:var(--ce)}}.c.cx{fill:var(--c1);animation-name:cx}@keyframes cy{25.83%{fill:var(--c1)}25.85%,100%{fill:var(--ce)}}.c.cy{fill:var(--c1);animation-name:cy}@keyframes cz{17.3%{fill:var(--c1)}17.32%,100%{fill:var(--ce)}}.c.cz{fill:var(--c1);animation-name:cz}@keyframes c10{56.58%{fill:var(--c2)}56.6%,100%{fill:var(--ce)}}.c.c10{fill:var(--c2);animation-name:c10}@keyframes c11{26.35%{fill:var(--c1)}26.37%,100%{fill:var(--ce)}}.c.c11{fill:var(--c1);animation-name:c11}@keyframes c12{56.06%{fill:var(--c2)}56.08%,100%{fill:var(--ce)}}.c.c12{fill:var(--c2);animation-name:c12}@keyframes c13{17.56%{fill:var(--c1)}17.58%,100%{fill:var(--ce)}}.c.c13{fill:var(--c1);animation-name:c13}@keyframes c14{57.1%{fill:var(--c2)}57.12%,100%{fill:var(--ce)}}.c.c14{fill:var(--c2);animation-name:c14}@keyframes c15{19.11%{fill:var(--c1)}19.13%,100%{fill:var(--ce)}}.c.c15{fill:var(--c1);animation-name:c15}@keyframes c16{18.85%{fill:var(--c1)}18.87%,100%{fill:var(--ce)}}.c.c16{fill:var(--c1);animation-name:c16}@keyframes c17{55.8%{fill:var(--c2)}55.82%,100%{fill:var(--ce)}}.c.c17{fill:var(--c2);animation-name:c17}@keyframes c18{24.8%{fill:var(--c1)}24.82%,100%{fill:var(--ce)}}.c.c18{fill:var(--c1);animation-name:c18}@keyframes c19{19.63%{fill:var(--c1)}19.65%,100%{fill:var(--ce)}}.c.c19{fill:var(--c1);animation-name:c19}@keyframes c1a{18.59%{fill:var(--c1)}18.61%,100%{fill:var(--ce)}}.c.c1a{fill:var(--c1);animation-name:c1a}@keyframes c1b{18.08%{fill:var(--c1)}18.1%,100%{fill:var(--ce)}}.c.c1b{fill:var(--c1);animation-name:c1b}@keyframes c1c{19.89%{fill:var(--c1)}19.91%,100%{fill:var(--ce)}}.c.c1c{fill:var(--c1);animation-name:c1c}@keyframes c1d{20.4%{fill:var(--c1)}20.42%,100%{fill:var(--ce)}}.c.c1d{fill:var(--c1);animation-name:c1d}@keyframes c1e{24.02%{fill:var(--c1)}24.04%,100%{fill:var(--ce)}}.c.c1e{fill:var(--c1);animation-name:c1e}@keyframes c1f{86.29%{fill:var(--c3)}86.31%,100%{fill:var(--ce)}}.c.c1f{fill:var(--c3);animation-name:c1f}@keyframes c1g{22.73%{fill:var(--c1)}22.75%,100%{fill:var(--ce)}}.c.c1g{fill:var(--c1);animation-name:c1g}@keyframes c1h{23.76%{fill:var(--c1)}23.78%,100%{fill:var(--ce)}}.c.c1h{fill:var(--c1);animation-name:c1h}@keyframes c1i{59.16%{fill:var(--c2)}59.18%,100%{fill:var(--ce)}}.c.c1i{fill:var(--c2);animation-name:c1i}@keyframes c1j{85.78%{fill:var(--c3)}85.8%,100%{fill:var(--ce)}}.c.c1j{fill:var(--c3);animation-name:c1j}@keyframes c1k{22.47%{fill:var(--c1)}22.49%,100%{fill:var(--ce)}}.c.c1k{fill:var(--c1);animation-name:c1k}@keyframes c1l{53.22%{fill:var(--c2)}53.24%,100%{fill:var(--ce)}}.c.c1l{fill:var(--c2);animation-name:c1l}@keyframes c1m{52.96%{fill:var(--c2)}52.98%,100%{fill:var(--ce)}}.c.c1m{fill:var(--c2);animation-name:c1m}@keyframes c1n{21.7%{fill:var(--c1)}21.72%,100%{fill:var(--ce)}}.c.c1n{fill:var(--c1);animation-name:c1n}@keyframes c1o{22.21%{fill:var(--c1)}22.23%,100%{fill:var(--ce)}}.c.c1o{fill:var(--c1);animation-name:c1o}@keyframes c1p{52.7%{fill:var(--c1)}52.72%,100%{fill:var(--ce)}}.c.c1p{fill:var(--c1);animation-name:c1p}@keyframes c1q{54%{fill:var(--c2)}54.02%,100%{fill:var(--ce)}}.c.c1q{fill:var(--c2);animation-name:c1q}@keyframes c1r{59.68%{fill:var(--c2)}59.7%,100%{fill:var(--ce)}}.c.c1r{fill:var(--c2);animation-name:c1r}@keyframes c1s{87.33%{fill:var(--c4)}87.35%,100%{fill:var(--ce)}}.c.c1s{fill:var(--c4);animation-name:c1s}@keyframes c1t{87.59%{fill:var(--c4)}87.61%,100%{fill:var(--ce)}}.c.c1t{fill:var(--c4);animation-name:c1t}@keyframes c1u{87.85%{fill:var(--c4)}87.87%,100%{fill:var(--ce)}}.c.c1u{fill:var(--c4);animation-name:c1u}@keyframes c1v{88.1%{fill:var(--c4)}88.12%,100%{fill:var(--ce)}}.c.c1v{fill:var(--c4);animation-name:c1v}@keyframes c1w{88.36%{fill:var(--c4)}88.38%,100%{fill:var(--ce)}}.c.c1w{fill:var(--c4);animation-name:c1w}@keyframes c1x{37.2%{fill:var(--c1)}37.22%,100%{fill:var(--ce)}}.c.c1x{fill:var(--c1);animation-name:c1x}@keyframes c1y{36.68%{fill:var(--c1)}36.7%,100%{fill:var(--ce)}}.c.c1y{fill:var(--c1);animation-name:c1y}@keyframes c1z{36.42%{fill:var(--c1)}36.44%,100%{fill:var(--ce)}}.c.c1z{fill:var(--c1);animation-name:c1z}@keyframes c20{36.17%{fill:var(--c1)}36.19%,100%{fill:var(--ce)}}.c.c20{fill:var(--c1);animation-name:c20}@keyframes c21{35.39%{fill:var(--c1)}35.41%,100%{fill:var(--ce)}}.c.c21{fill:var(--c1);animation-name:c21}@keyframes c22{35.91%{fill:var(--c1)}35.93%,100%{fill:var(--ce)}}.c.c22{fill:var(--c1);animation-name:c22}@keyframes c23{35.65%{fill:var(--c1)}35.67%,100%{fill:var(--ce)}}.c.c23{fill:var(--c1);animation-name:c23}@keyframes c24{39.52%{fill:var(--c1)}39.54%,100%{fill:var(--ce)}}.c.c24{fill:var(--c1);animation-name:c24}@keyframes c25{40.56%{fill:var(--c1)}40.58%,100%{fill:var(--ce)}}.c.c25{fill:var(--c1);animation-name:c25}@keyframes c26{37.97%{fill:var(--c1)}37.99%,100%{fill:var(--ce)}}.c.c26{fill:var(--c1);animation-name:c26}@keyframes c27{41.08%{fill:var(--c1)}41.1%,100%{fill:var(--ce)}}.c.c27{fill:var(--c1);animation-name:c27}@keyframes c28{38.23%{fill:var(--c1)}38.25%,100%{fill:var(--ce)}}.c.c28{fill:var(--c1);animation-name:c28}@keyframes c29{38.49%{fill:var(--c1)}38.51%,100%{fill:var(--ce)}}.c.c29{fill:var(--c1);animation-name:c29}@keyframes c2a{44.95%{fill:var(--c1)}44.97%,100%{fill:var(--ce)}}.c.c2a{fill:var(--c1);animation-name:c2a}@keyframes c2b{44.69%{fill:var(--c1)}44.71%,100%{fill:var(--ce)}}.c.c2b{fill:var(--c1);animation-name:c2b}@keyframes c2c{44.43%{fill:var(--c1)}44.45%,100%{fill:var(--ce)}}.c.c2c{fill:var(--c1);animation-name:c2c}@keyframes c2d{44.18%{fill:var(--c1)}44.2%,100%{fill:var(--ce)}}.c.c2d{fill:var(--c1);animation-name:c2d}@keyframes c2e{42.63%{fill:var(--c1)}42.65%,100%{fill:var(--ce)}}.c.c2e{fill:var(--c1);animation-name:c2e}@keyframes c2f{42.88%{fill:var(--c1)}42.9%,100%{fill:var(--ce)}}.c.c2f{fill:var(--c1);animation-name:c2f}@keyframes c2g{45.21%{fill:var(--c1)}45.23%,100%{fill:var(--ce)}}.c.c2g{fill:var(--c1);animation-name:c2g}@keyframes c2h{45.73%{fill:var(--c1)}45.75%,100%{fill:var(--ce)}}.c.c2h{fill:var(--c1);animation-name:c2h}@keyframes c2i{63.56%{fill:var(--c2)}63.58%,100%{fill:var(--ce)}}.c.c2i{fill:var(--c2);animation-name:c2i}@keyframes c2j{46.76%{fill:var(--c1)}46.78%,100%{fill:var(--ce)}}.c.c2j{fill:var(--c1);animation-name:c2j}.u{transform-origin:0 0;transform:scale(0,1);animation:none linear 38700ms infinite}@keyframes u0{0.51%{transform:scale(0.000,1)}0.53%,0.77%{transform:scale(0.014,1)}0.79%,1.02%{transform:scale(0.027,1)}1.04%,1.28%{transform:scale(0.041,1)}1.3%,1.54%{transform:scale(0.055,1)}1.56%,1.8%{transform:scale(0.068,1)}1.82%,3.09%{transform:scale(0.082,1)}3.11%,3.35%{transform:scale(0.096,1)}3.37%,3.87%{transform:scale(0.110,1)}3.89%,4.12%{transform:scale(0.123,1)}4.14%,4.38%{transform:scale(0.137,1)}4.4%,4.64%{transform:scale(0.151,1)}4.66%,5.16%{transform:scale(0.164,1)}5.18%,5.42%{transform:scale(0.178,1)}5.44%,5.67%{transform:scale(0.192,1)}5.69%,5.93%{transform:scale(0.205,1)}5.95%,6.19%{transform:scale(0.219,1)}6.21%,6.45%{transform:scale(0.233,1)}6.47%,6.71%{transform:scale(0.247,1)}6.73%,6.97%{transform:scale(0.260,1)}6.99%,7.48%{transform:scale(0.274,1)}7.5%,9.81%{transform:scale(0.288,1)}9.83%,10.58%{transform:scale(0.301,1)}10.6%,12.39%{transform:scale(0.315,1)}12.41%,12.65%{transform:scale(0.329,1)}12.67%,14.72%{transform:scale(0.342,1)}14.74%,15.75%{transform:scale(0.356,1)}15.77%,16.01%{transform:scale(0.370,1)}16.03%,16.53%{transform:scale(0.384,1)}16.55%,17.04%{transform:scale(0.397,1)}17.06%,17.3%{transform:scale(0.411,1)}17.32%,17.56%{transform:scale(0.425,1)}17.58%,18.08%{transform:scale(0.438,1)}18.1%,18.59%{transform:scale(0.452,1)}18.61%,18.85%{transform:scale(0.466,1)}18.87%,19.11%{transform:scale(0.479,1)}19.13%,19.63%{transform:scale(0.493,1)}19.65%,19.89%{transform:scale(0.507,1)}19.91%,20.4%{transform:scale(0.521,1)}20.42%,21.7%{transform:scale(0.534,1)}21.72%,22.21%{transform:scale(0.548,1)}22.23%,22.47%{transform:scale(0.562,1)}22.49%,22.73%{transform:scale(0.575,1)}22.75%,23.76%{transform:scale(0.589,1)}23.78%,24.02%{transform:scale(0.603,1)}24.04%,24.8%{transform:scale(0.616,1)}24.82%,25.83%{transform:scale(0.630,1)}25.85%,26.35%{transform:scale(0.644,1)}26.37%,29.45%{transform:scale(0.658,1)}29.47%,30.22%{transform:scale(0.671,1)}30.24%,35.39%{transform:scale(0.685,1)}35.41%,35.65%{transform:scale(0.699,1)}35.67%,35.91%{transform:scale(0.712,1)}35.93%,36.17%{transform:scale(0.726,1)}36.19%,36.42%{transform:scale(0.740,1)}36.44%,36.68%{transform:scale(0.753,1)}36.7%,37.2%{transform:scale(0.767,1)}37.22%,37.97%{transform:scale(0.781,1)}37.99%,38.23%{transform:scale(0.795,1)}38.25%,38.49%{transform:scale(0.808,1)}38.51%,39.52%{transform:scale(0.822,1)}39.54%,40.56%{transform:scale(0.836,1)}40.58%,41.08%{transform:scale(0.849,1)}41.1%,42.63%{transform:scale(0.863,1)}42.65%,42.88%{transform:scale(0.877,1)}42.9%,44.18%{transform:scale(0.890,1)}44.2%,44.43%{transform:scale(0.904,1)}44.45%,44.69%{transform:scale(0.918,1)}44.71%,44.95%{transform:scale(0.932,1)}44.97%,45.21%{transform:scale(0.945,1)}45.23%,45.73%{transform:scale(0.959,1)}45.75%,46.76%{transform:scale(0.973,1)}46.78%,52.7%{transform:scale(0.986,1)}52.72%,100%{transform:scale(1.000,1)}}.u.u0{fill:var(--c1);animation-name:u0;transform-origin:0.0px 0}@keyframes u1{52.96%{transform:scale(0.000,1)}52.98%,53.22%{transform:scale(0.083,1)}53.24%,54%{transform:scale(0.167,1)}54.02%,55.8%{transform:scale(0.250,1)}55.82%,56.06%{transform:scale(0.333,1)}56.08%,56.58%{transform:scale(0.417,1)}56.6%,57.1%{transform:scale(0.500,1)}57.12%,59.16%{transform:scale(0.583,1)}59.18%,59.68%{transform:scale(0.667,1)}59.7%,63.56%{transform:scale(0.750,1)}63.58%,72.6%{transform:scale(0.833,1)}72.62%,77.25%{transform:scale(0.917,1)}77.27%,100%{transform:scale(1.000,1)}}.u.u1{fill:var(--c2);animation-name:u1;transform-origin:672.9px 0}@keyframes u2{85.78%{transform:scale(0.000,1)}85.8%,86.29%{transform:scale(0.500,1)}86.31%,100%{transform:scale(1.000,1)}}.u.u2{fill:var(--c3);animation-name:u2;transform-origin:783.5px 0}@keyframes u3{87.33%{transform:scale(0.000,1)}87.35%,87.59%{transform:scale(0.200,1)}87.61%,87.85%{transform:scale(0.400,1)}87.87%,88.1%{transform:scale(0.600,1)}88.12%,88.36%{transform:scale(0.800,1)}88.38%,100%{transform:scale(1.000,1)}}.u.u3{fill:var(--c4);animation-name:u3;transform-origin:801.9px 0}.s{shape-rendering:geometricPrecision;fill:var(--cs);animation:none linear 38700ms infinite}@keyframes s0{0%,99.74%{transform:translate(0px,-16px)}0.26%{transform:translate(0px,0px)}0.78%{transform:translate(32px,0px)}1.03%{transform:translate(32px,16px)}1.55%{transform:translate(64px,16px)}1.81%,76.74%,98.45%{transform:translate(64px,0px)}2.07%{transform:translate(80px,0px)}2.84%{transform:translate(80px,48px)}3.1%{transform:translate(64px,48px)}3.36%{transform:translate(64px,64px)}4.13%{transform:translate(16px,64px)}4.65%{transform:translate(16px,32px)}4.91%{transform:translate(0px,32px)}5.68%,7.75%{transform:translate(0px,80px)}6.46%{transform:translate(48px,80px)}6.72%{transform:translate(48px,96px)}7.49%{transform:translate(0px,96px)}9.56%{transform:translate(112px,80px)}9.82%{transform:translate(112px,96px)}10.08%{transform:translate(128px,96px)}10.59%{transform:translate(128px,64px)}12.14%{transform:translate(224px,64px)}12.66%{transform:translate(224px,96px)}14.21%{transform:translate(320px,96px)}14.73%{transform:translate(320px,64px)}15.5%{transform:translate(368px,64px)}15.76%{transform:translate(368px,80px)}18.09%{transform:translate(512px,80px)}18.6%,26.87%{transform:translate(512px,48px)}18.86%{transform:translate(496px,48px)}19.12%,56.85%{transform:translate(496px,32px)}19.38%{transform:translate(512px,32px)}19.64%{transform:translate(512px,16px)}20.16%,57.88%{transform:translate(544px,16px)}20.67%,58.4%{transform:translate(544px,-16px)}21.45%,51.42%{transform:translate(592px,-16px)}22.22%{transform:translate(592px,32px)}22.74%{transform:translate(560px,32px)}23.77%{transform:translate(560px,96px)}24.81%{transform:translate(496px,96px)}25.06%{transform:translate(496px,80px)}25.58%{transform:translate(464px,80px)}26.1%,31.78%{transform:translate(464px,48px)}27.65%{transform:translate(512px,0px)}29.2%{transform:translate(416px,0px)}29.46%{transform:translate(416px,16px)}29.97%{transform:translate(384px,16px)}30.23%{transform:translate(384px,32px)}31.52%{transform:translate(464px,32px)}33.33%{transform:translate(560px,48px)}33.85%{transform:translate(560px,80px)}34.11%,54.26%{transform:translate(576px,80px)}34.37%{transform:translate(576px,96px)}35.66%{transform:translate(656px,96px)}35.92%{transform:translate(656px,80px)}36.18%{transform:translate(640px,80px)}37.21%{transform:translate(640px,16px)}38.24%{transform:translate(704px,16px)}38.5%{transform:translate(704px,32px)}38.76%{transform:translate(688px,32px)}39.28%{transform:translate(688px,0px)}39.53%{transform:translate(672px,0px)}40.57%{transform:translate(672px,64px)}40.83%{transform:translate(688px,64px)}41.09%{transform:translate(688px,80px)}42.64%{transform:translate(784px,80px)}42.89%{transform:translate(784px,96px)}43.15%{transform:translate(800px,96px)}43.93%{transform:translate(800px,48px)}44.19%{transform:translate(784px,48px)}44.96%{transform:translate(784px,0px)}45.99%{transform:translate(848px,0px)}46.51%{transform:translate(848px,32px)}48.58%{transform:translate(720px,32px)}48.84%{transform:translate(720px,16px)}49.35%{transform:translate(688px,16px)}49.87%{transform:translate(688px,-16px)}52.71%{transform:translate(592px,64px)}52.97%,54.52%{transform:translate(576px,64px)}53.23%{transform:translate(576px,48px)}53.49%{transform:translate(592px,48px)}54.01%{transform:translate(592px,80px)}56.07%{transform:translate(480px,64px)}56.59%{transform:translate(480px,32px)}57.11%{transform:translate(496px,16px)}58.91%{transform:translate(576px,-16px)}59.17%,86.05%{transform:translate(576px,0px)}63.31%{transform:translate(832px,0px)}63.57%{transform:translate(832px,16px)}63.82%{transform:translate(816px,16px)}64.34%{transform:translate(816px,-16px)}72.35%{transform:translate(320px,-16px)}72.61%{transform:translate(320px,0px)}77.26%{transform:translate(64px,32px)}85.53%{transform:translate(576px,32px)}86.3%{transform:translate(560px,0px)}86.56%{transform:translate(560px,16px)}87.34%{transform:translate(608px,16px)}88.37%{transform:translate(608px,80px)}93.8%{transform:translate(272px,80px)}94.32%{transform:translate(272px,48px)}95.35%{transform:translate(208px,48px)}95.61%{transform:translate(208px,32px)}95.87%{transform:translate(192px,32px)}96.12%{transform:translate(192px,16px)}96.38%{transform:translate(176px,16px)}96.64%{transform:translate(176px,0px)}98.71%{transform:translate(64px,-16px)}}.s.s0{transform:translate(0px,-16px);animation-name:s0}@keyframes s1{0%,99.74%{transform:translate(16px,-16px)}0.26%{transform:translate(0px,-16px)}0.52%{transform:translate(0px,0px)}1.03%{transform:translate(32px,0px)}1.29%{transform:translate(32px,16px)}1.81%{transform:translate(64px,16px)}2.07%,77%,98.71%{transform:translate(64px,0px)}2.33%{transform:translate(80px,0px)}3.1%{transform:translate(80px,48px)}3.36%{transform:translate(64px,48px)}3.62%{transform:translate(64px,64px)}4.39%{transform:translate(16px,64px)}4.91%{transform:translate(16px,32px)}5.17%{transform:translate(0px,32px)}5.94%,8.01%{transform:translate(0px,80px)}6.72%{transform:translate(48px,80px)}6.98%{transform:translate(48px,96px)}7.75%{transform:translate(0px,96px)}9.82%{transform:translate(112px,80px)}10.08%{transform:translate(112px,96px)}10.34%{transform:translate(128px,96px)}10.85%{transform:translate(128px,64px)}12.4%{transform:translate(224px,64px)}12.92%{transform:translate(224px,96px)}14.47%{transform:translate(320px,96px)}14.99%{transform:translate(320px,64px)}15.76%{transform:translate(368px,64px)}16.02%{transform:translate(368px,80px)}18.35%{transform:translate(512px,80px)}18.86%,27.13%{transform:translate(512px,48px)}19.12%{transform:translate(496px,48px)}19.38%,57.11%{transform:translate(496px,32px)}19.64%{transform:translate(512px,32px)}19.9%{transform:translate(512px,16px)}20.41%,58.14%{transform:translate(544px,16px)}20.93%,58.66%{transform:translate(544px,-16px)}21.71%,51.68%{transform:translate(592px,-16px)}22.48%{transform:translate(592px,32px)}23%{transform:translate(560px,32px)}24.03%{transform:translate(560px,96px)}25.06%{transform:translate(496px,96px)}25.32%{transform:translate(496px,80px)}25.84%{transform:translate(464px,80px)}26.36%,32.04%{transform:translate(464px,48px)}27.91%{transform:translate(512px,0px)}29.46%{transform:translate(416px,0px)}29.72%{transform:translate(416px,16px)}30.23%{transform:translate(384px,16px)}30.49%{transform:translate(384px,32px)}31.78%{transform:translate(464px,32px)}33.59%{transform:translate(560px,48px)}34.11%{transform:translate(560px,80px)}34.37%,54.52%{transform:translate(576px,80px)}34.63%{transform:translate(576px,96px)}35.92%{transform:translate(656px,96px)}36.18%{transform:translate(656px,80px)}36.43%{transform:translate(640px,80px)}37.47%{transform:translate(640px,16px)}38.5%{transform:translate(704px,16px)}38.76%{transform:translate(704px,32px)}39.02%{transform:translate(688px,32px)}39.53%{transform:translate(688px,0px)}39.79%{transform:translate(672px,0px)}40.83%{transform:translate(672px,64px)}41.09%{transform:translate(688px,64px)}41.34%{transform:translate(688px,80px)}42.89%{transform:translate(784px,80px)}43.15%{transform:translate(784px,96px)}43.41%{transform:translate(800px,96px)}44.19%{transform:translate(800px,48px)}44.44%{transform:translate(784px,48px)}45.22%{transform:translate(784px,0px)}46.25%{transform:translate(848px,0px)}46.77%{transform:translate(848px,32px)}48.84%{transform:translate(720px,32px)}49.1%{transform:translate(720px,16px)}49.61%{transform:translate(688px,16px)}50.13%{transform:translate(688px,-16px)}52.97%{transform:translate(592px,64px)}53.23%,54.78%{transform:translate(576px,64px)}53.49%{transform:translate(576px,48px)}53.75%{transform:translate(592px,48px)}54.26%{transform:translate(592px,80px)}56.33%{transform:translate(480px,64px)}56.85%{transform:translate(480px,32px)}57.36%{transform:translate(496px,16px)}59.17%{transform:translate(576px,-16px)}59.43%,86.3%{transform:translate(576px,0px)}63.57%{transform:translate(832px,0px)}63.82%{transform:translate(832px,16px)}64.08%{transform:translate(816px,16px)}64.6%{transform:translate(816px,-16px)}72.61%{transform:translate(320px,-16px)}72.87%{transform:translate(320px,0px)}77.52%{transform:translate(64px,32px)}85.79%{transform:translate(576px,32px)}86.56%{transform:translate(560px,0px)}86.82%{transform:translate(560px,16px)}87.6%{transform:translate(608px,16px)}88.63%{transform:translate(608px,80px)}94.06%{transform:translate(272px,80px)}94.57%{transform:translate(272px,48px)}95.61%{transform:translate(208px,48px)}95.87%{transform:translate(208px,32px)}96.12%{transform:translate(192px,32px)}96.38%{transform:translate(192px,16px)}96.64%{transform:translate(176px,16px)}96.9%{transform:translate(176px,0px)}98.97%{transform:translate(64px,-16px)}}.s.s1{transform:translate(16px,-16px);animation-name:s1}@keyframes s2{0%,99.74%{transform:translate(32px,-16px)}0.52%{transform:translate(0px,-16px)}0.78%{transform:translate(0px,0px)}1.29%{transform:translate(32px,0px)}1.55%{transform:translate(32px,16px)}2.07%{transform:translate(64px,16px)}2.33%,77.26%,98.97%{transform:translate(64px,0px)}2.58%{transform:translate(80px,0px)}3.36%{transform:translate(80px,48px)}3.62%{transform:translate(64px,48px)}3.88%{transform:translate(64px,64px)}4.65%{transform:translate(16px,64px)}5.17%{transform:translate(16px,32px)}5.43%{transform:translate(0px,32px)}6.2%,8.27%{transform:translate(0px,80px)}6.98%{transform:translate(48px,80px)}7.24%{transform:translate(48px,96px)}8.01%{transform:translate(0px,96px)}10.08%{transform:translate(112px,80px)}10.34%{transform:translate(112px,96px)}10.59%{transform:translate(128px,96px)}11.11%{transform:translate(128px,64px)}12.66%{transform:translate(224px,64px)}13.18%{transform:translate(224px,96px)}14.73%{transform:translate(320px,96px)}15.25%{transform:translate(320px,64px)}16.02%{transform:translate(368px,64px)}16.28%{transform:translate(368px,80px)}18.6%{transform:translate(512px,80px)}19.12%,27.39%{transform:translate(512px,48px)}19.38%{transform:translate(496px,48px)}19.64%,57.36%{transform:translate(496px,32px)}19.9%{transform:translate(512px,32px)}20.16%{transform:translate(512px,16px)}20.67%,58.4%{transform:translate(544px,16px)}21.19%,58.91%{transform:translate(544px,-16px)}21.96%,51.94%{transform:translate(592px,-16px)}22.74%{transform:translate(592px,32px)}23.26%{transform:translate(560px,32px)}24.29%{transform:translate(560px,96px)}25.32%{transform:translate(496px,96px)}25.58%{transform:translate(496px,80px)}26.1%{transform:translate(464px,80px)}26.61%,32.3%{transform:translate(464px,48px)}28.17%{transform:translate(512px,0px)}29.72%{transform:translate(416px,0px)}29.97%{transform:translate(416px,16px)}30.49%{transform:translate(384px,16px)}30.75%{transform:translate(384px,32px)}32.04%{transform:translate(464px,32px)}33.85%{transform:translate(560px,48px)}34.37%{transform:translate(560px,80px)}34.63%,54.78%{transform:translate(576px,80px)}34.88%{transform:translate(576px,96px)}36.18%{transform:translate(656px,96px)}36.43%{transform:translate(656px,80px)}36.69%{transform:translate(640px,80px)}37.73%{transform:translate(640px,16px)}38.76%{transform:translate(704px,16px)}39.02%{transform:translate(704px,32px)}39.28%{transform:translate(688px,32px)}39.79%{transform:translate(688px,0px)}40.05%{transform:translate(672px,0px)}41.09%{transform:translate(672px,64px)}41.34%{transform:translate(688px,64px)}41.6%{transform:translate(688px,80px)}43.15%{transform:translate(784px,80px)}43.41%{transform:translate(784px,96px)}43.67%{transform:translate(800px,96px)}44.44%{transform:translate(800px,48px)}44.7%{transform:translate(784px,48px)}45.48%{transform:translate(784px,0px)}46.51%{transform:translate(848px,0px)}47.03%{transform:translate(848px,32px)}49.1%{transform:translate(720px,32px)}49.35%{transform:translate(720px,16px)}49.87%{transform:translate(688px,16px)}50.39%{transform:translate(688px,-16px)}53.23%{transform:translate(592px,64px)}53.49%,55.04%{transform:translate(576px,64px)}53.75%{transform:translate(576px,48px)}54.01%{transform:translate(592px,48px)}54.52%{transform:translate(592px,80px)}56.59%{transform:translate(480px,64px)}57.11%{transform:translate(480px,32px)}57.62%{transform:translate(496px,16px)}59.43%{transform:translate(576px,-16px)}59.69%,86.56%{transform:translate(576px,0px)}63.82%{transform:translate(832px,0px)}64.08%{transform:translate(832px,16px)}64.34%{transform:translate(816px,16px)}64.86%{transform:translate(816px,-16px)}72.87%{transform:translate(320px,-16px)}73.13%{transform:translate(320px,0px)}77.78%{transform:translate(64px,32px)}86.05%{transform:translate(576px,32px)}86.82%{transform:translate(560px,0px)}87.08%{transform:translate(560px,16px)}87.86%{transform:translate(608px,16px)}88.89%{transform:translate(608px,80px)}94.32%{transform:translate(272px,80px)}94.83%{transform:translate(272px,48px)}95.87%{transform:translate(208px,48px)}96.12%{transform:translate(208px,32px)}96.38%{transform:translate(192px,32px)}96.64%{transform:translate(192px,16px)}96.9%{transform:translate(176px,16px)}97.16%{transform:translate(176px,0px)}99.22%{transform:translate(64px,-16px)}}.s.s2{transform:translate(32px,-16px);animation-name:s2}@keyframes s3{0%,99.74%{transform:translate(48px,-16px)}0.78%{transform:translate(0px,-16px)}1.03%{transform:translate(0px,0px)}1.55%{transform:translate(32px,0px)}1.81%{transform:translate(32px,16px)}2.33%{transform:translate(64px,16px)}2.58%,77.52%,99.22%{transform:translate(64px,0px)}2.84%{transform:translate(80px,0px)}3.62%{transform:translate(80px,48px)}3.88%{transform:translate(64px,48px)}4.13%{transform:translate(64px,64px)}4.91%{transform:translate(16px,64px)}5.43%{transform:translate(16px,32px)}5.68%{transform:translate(0px,32px)}6.46%,8.53%{transform:translate(0px,80px)}7.24%{transform:translate(48px,80px)}7.49%{transform:translate(48px,96px)}8.27%{transform:translate(0px,96px)}10.34%{transform:translate(112px,80px)}10.59%{transform:translate(112px,96px)}10.85%{transform:translate(128px,96px)}11.37%{transform:translate(128px,64px)}12.92%{transform:translate(224px,64px)}13.44%{transform:translate(224px,96px)}14.99%{transform:translate(320px,96px)}15.5%{transform:translate(320px,64px)}16.28%{transform:translate(368px,64px)}16.54%{transform:translate(368px,80px)}18.86%{transform:translate(512px,80px)}19.38%,27.65%{transform:translate(512px,48px)}19.64%{transform:translate(496px,48px)}19.9%,57.62%{transform:translate(496px,32px)}20.16%{transform:translate(512px,32px)}20.41%{transform:translate(512px,16px)}20.93%,58.66%{transform:translate(544px,16px)}21.45%,59.17%{transform:translate(544px,-16px)}22.22%,52.2%{transform:translate(592px,-16px)}23%{transform:translate(592px,32px)}23.51%{transform:translate(560px,32px)}24.55%{transform:translate(560px,96px)}25.58%{transform:translate(496px,96px)}25.84%{transform:translate(496px,80px)}26.36%{transform:translate(464px,80px)}26.87%,32.56%{transform:translate(464px,48px)}28.42%{transform:translate(512px,0px)}29.97%{transform:translate(416px,0px)}30.23%{transform:translate(416px,16px)}30.75%{transform:translate(384px,16px)}31.01%{transform:translate(384px,32px)}32.3%{transform:translate(464px,32px)}34.11%{transform:translate(560px,48px)}34.63%{transform:translate(560px,80px)}34.88%,55.04%{transform:translate(576px,80px)}35.14%{transform:translate(576px,96px)}36.43%{transform:translate(656px,96px)}36.69%{transform:translate(656px,80px)}36.95%{transform:translate(640px,80px)}37.98%{transform:translate(640px,16px)}39.02%{transform:translate(704px,16px)}39.28%{transform:translate(704px,32px)}39.53%{transform:translate(688px,32px)}40.05%{transform:translate(688px,0px)}40.31%{transform:translate(672px,0px)}41.34%{transform:translate(672px,64px)}41.6%{transform:translate(688px,64px)}41.86%{transform:translate(688px,80px)}43.41%{transform:translate(784px,80px)}43.67%{transform:translate(784px,96px)}43.93%{transform:translate(800px,96px)}44.7%{transform:translate(800px,48px)}44.96%{transform:translate(784px,48px)}45.74%{transform:translate(784px,0px)}46.77%{transform:translate(848px,0px)}47.29%{transform:translate(848px,32px)}49.35%{transform:translate(720px,32px)}49.61%{transform:translate(720px,16px)}50.13%{transform:translate(688px,16px)}50.65%{transform:translate(688px,-16px)}53.49%{transform:translate(592px,64px)}53.75%,55.3%{transform:translate(576px,64px)}54.01%{transform:translate(576px,48px)}54.26%{transform:translate(592px,48px)}54.78%{transform:translate(592px,80px)}56.85%{transform:translate(480px,64px)}57.36%{transform:translate(480px,32px)}57.88%{transform:translate(496px,16px)}59.69%{transform:translate(576px,-16px)}59.95%,86.82%{transform:translate(576px,0px)}64.08%{transform:translate(832px,0px)}64.34%{transform:translate(832px,16px)}64.6%{transform:translate(816px,16px)}65.12%{transform:translate(816px,-16px)}73.13%{transform:translate(320px,-16px)}73.39%{transform:translate(320px,0px)}78.04%{transform:translate(64px,32px)}86.3%{transform:translate(576px,32px)}87.08%{transform:translate(560px,0px)}87.34%{transform:translate(560px,16px)}88.11%{transform:translate(608px,16px)}89.15%{transform:translate(608px,80px)}94.57%{transform:translate(272px,80px)}95.09%{transform:translate(272px,48px)}96.12%{transform:translate(208px,48px)}96.38%{transform:translate(208px,32px)}96.64%{transform:translate(192px,32px)}96.9%{transform:translate(192px,16px)}97.16%{transform:translate(176px,16px)}97.42%{transform:translate(176px,0px)}99.48%{transform:translate(64px,-16px)}}.s.s3{transform:translate(48px,-16px);animation-name:s3}</style><rect class="c" x="2" y="2" rx="2" ry="2"/><rect class="c" x="2" y="18" rx="2" ry="2"/><rect class="c" x="2" y="34" rx="2" ry="2"/><rect class="c c0" x="2" y="50" rx="2" ry="2"/><rect class="c c1" x="2" y="66" rx="2" ry="2"/><rect class="c c2" x="2" y="82" rx="2" ry="2"/><rect class="c c3" x="2" y="98" rx="2" ry="2"/><rect class="c c4" x="18" y="2" rx="2" ry="2"/><rect class="c" x="18" y="18" rx="2" ry="2"/><rect class="c c5" x="18" y="34" rx="2" ry="2"/><rect class="c c6" x="18" y="50" rx="2" ry="2"/><rect class="c c7" x="18" y="66" rx="2" ry="2"/><rect class="c c8" x="18" y="82" rx="2" ry="2"/><rect class="c" x="18" y="98" rx="2" ry="2"/><rect class="c c9" x="34" y="2" rx="2" ry="2"/><rect class="c ca" x="34" y="18" rx="2" ry="2"/><rect class="c" x="34" y="34" rx="2" ry="2"/><rect class="c" x="34" y="50" rx="2" ry="2"/><rect class="c cb" x="34" y="66" rx="2" ry="2"/><rect class="c cc" x="34" y="82" rx="2" ry="2"/><rect class="c cd" x="34" y="98" rx="2" ry="2"/><rect class="c" x="50" y="2" rx="2" ry="2"/><rect class="c ce" x="50" y="18" rx="2" ry="2"/><rect class="c" x="50" y="34" rx="2" ry="2"/><rect class="c" x="50" y="50" rx="2" ry="2"/><rect class="c" x="50" y="66" rx="2" ry="2"/><rect class="c cf" x="50" y="82" rx="2" ry="2"/><rect class="c cg" x="50" y="98" rx="2" ry="2"/><rect class="c ch" x="66" y="2" rx="2" ry="2"/><rect class="c ci" x="66" y="18" rx="2" ry="2"/><rect class="c cj" x="66" y="34" rx="2" ry="2"/><rect class="c ck" x="66" y="50" rx="2" ry="2"/><rect class="c cl" x="66" y="66" rx="2" ry="2"/><rect class="c" x="66" y="82" rx="2" ry="2"/><rect class="c" x="66" y="98" rx="2" ry="2"/><rect class="c" x="82" y="2" rx="2" ry="2"/><rect class="c" x="82" y="18" rx="2" ry="2"/><rect class="c" x="82" y="34" rx="2" ry="2"/><rect class="c" x="82" y="50" rx="2" ry="2"/><rect class="c" x="82" y="66" rx="2" ry="2"/><rect class="c" x="82" y="82" rx="2" ry="2"/><rect class="c" x="82" y="98" rx="2" ry="2"/><rect class="c" x="98" y="2" rx="2" ry="2"/><rect class="c" x="98" y="18" rx="2" ry="2"/><rect class="c" x="98" y="34" rx="2" ry="2"/><rect class="c" x="98" y="50" rx="2" ry="2"/><rect class="c" x="98" y="66" rx="2" ry="2"/><rect class="c" x="98" y="82" rx="2" ry="2"/><rect class="c" x="98" y="98" rx="2" ry="2"/><rect class="c" x="114" y="2" rx="2" ry="2"/><rect class="c" x="114" y="18" rx="2" ry="2"/><rect class="c" x="114" y="34" rx="2" ry="2"/><rect class="c" x="114" y="50" rx="2" ry="2"/><rect class="c" x="114" y="66" rx="2" ry="2"/><rect class="c" x="114" y="82" rx="2" ry="2"/><rect class="c cm" x="114" y="98" rx="2" ry="2"/><rect class="c" x="130" y="2" rx="2" ry="2"/><rect class="c" x="130" y="18" rx="2" ry="2"/><rect class="c" x="130" y="34" rx="2" ry="2"/><rect class="c" x="130" y="50" rx="2" ry="2"/><rect class="c cn" x="130" y="66" rx="2" ry="2"/><rect class="c" x="130" y="82" rx="2" ry="2"/><rect class="c" x="130" y="98" rx="2" ry="2"/><rect class="c" x="146" y="2" rx="2" ry="2"/><rect class="c" x="146" y="18" rx="2" ry="2"/><rect class="c" x="146" y="34" rx="2" ry="2"/><rect class="c" x="146" y="50" rx="2" ry="2"/><rect class="c" x="146" y="66" rx="2" ry="2"/><rect class="c" x="146" y="82" rx="2" ry="2"/><rect class="c" x="146" y="98" rx="2" ry="2"/><rect class="c" x="162" y="2" rx="2" ry="2"/><rect class="c" x="162" y="18" rx="2" ry="2"/><rect class="c" x="162" y="34" rx="2" ry="2"/><rect class="c" x="162" y="50" rx="2" ry="2"/><rect class="c" x="162" y="66" rx="2" ry="2"/><rect class="c" x="162" y="82" rx="2" ry="2"/><rect class="c" x="162" y="98" rx="2" ry="2"/><rect class="c" x="178" y="2" rx="2" ry="2"/><rect class="c" x="178" y="18" rx="2" ry="2"/><rect class="c" x="178" y="34" rx="2" ry="2"/><rect class="c" x="178" y="50" rx="2" ry="2"/><rect class="c" x="178" y="66" rx="2" ry="2"/><rect class="c" x="178" y="82" rx="2" ry="2"/><rect class="c" x="178" y="98" rx="2" ry="2"/><rect class="c" x="194" y="2" rx="2" ry="2"/><rect class="c" x="194" y="18" rx="2" ry="2"/><rect class="c" x="194" y="34" rx="2" ry="2"/><rect class="c" x="194" y="50" rx="2" ry="2"/><rect class="c" x="194" y="66" rx="2" ry="2"/><rect class="c" x="194" y="82" rx="2" ry="2"/><rect class="c" x="194" y="98" rx="2" ry="2"/><rect class="c" x="210" y="2" rx="2" ry="2"/><rect class="c" x="210" y="18" rx="2" ry="2"/><rect class="c" x="210" y="34" rx="2" ry="2"/><rect class="c" x="210" y="50" rx="2" ry="2"/><rect class="c" x="210" y="66" rx="2" ry="2"/><rect class="c" x="210" y="82" rx="2" ry="2"/><rect class="c" x="210" y="98" rx="2" ry="2"/><rect class="c" x="226" y="2" rx="2" ry="2"/><rect class="c" x="226" y="18" rx="2" ry="2"/><rect class="c" x="226" y="34" rx="2" ry="2"/><rect class="c" x="226" y="50" rx="2" ry="2"/><rect class="c" x="226" y="66" rx="2" ry="2"/><rect class="c co" x="226" y="82" rx="2" ry="2"/><rect class="c cp" x="226" y="98" rx="2" ry="2"/><rect class="c" x="242" y="2" rx="2" ry="2"/><rect class="c" x="242" y="18" rx="2" ry="2"/><rect class="c" x="242" y="34" rx="2" ry="2"/><rect class="c" x="242" y="50" rx="2" ry="2"/><rect class="c" x="242" y="66" rx="2" ry="2"/><rect class="c" x="242" y="82" rx="2" ry="2"/><rect class="c" x="242" y="98" rx="2" ry="2"/><rect class="c" x="258" y="2" rx="2" ry="2"/><rect class="c" x="258" y="18" rx="2" ry="2"/><rect class="c" x="258" y="34" rx="2" ry="2"/><rect class="c" x="258" y="50" rx="2" ry="2"/><rect class="c" x="258" y="66" rx="2" ry="2"/><rect class="c" x="258" y="82" rx="2" ry="2"/><rect class="c" x="258" y="98" rx="2" ry="2"/><rect class="c" x="274" y="2" rx="2" ry="2"/><rect class="c" x="274" y="18" rx="2" ry="2"/><rect class="c" x="274" y="34" rx="2" ry="2"/><rect class="c" x="274" y="50" rx="2" ry="2"/><rect class="c" x="274" y="66" rx="2" ry="2"/><rect class="c" x="274" y="82" rx="2" ry="2"/><rect class="c" x="274" y="98" rx="2" ry="2"/><rect class="c" x="290" y="2" rx="2" ry="2"/><rect class="c" x="290" y="18" rx="2" ry="2"/><rect class="c" x="290" y="34" rx="2" ry="2"/><rect class="c" x="290" y="50" rx="2" ry="2"/><rect class="c" x="290" y="66" rx="2" ry="2"/><rect class="c" x="290" y="82" rx="2" ry="2"/><rect class="c" x="290" y="98" rx="2" ry="2"/><rect class="c" x="306" y="2" rx="2" ry="2"/><rect class="c" x="306" y="18" rx="2" ry="2"/><rect class="c" x="306" y="34" rx="2" ry="2"/><rect class="c" x="306" y="50" rx="2" ry="2"/><rect class="c" x="306" y="66" rx="2" ry="2"/><rect class="c" x="306" y="82" rx="2" ry="2"/><rect class="c" x="306" y="98" rx="2" ry="2"/><rect class="c cq" x="322" y="2" rx="2" ry="2"/><rect class="c" x="322" y="18" rx="2" ry="2"/><rect class="c" x="322" y="34" rx="2" ry="2"/><rect class="c" x="322" y="50" rx="2" ry="2"/><rect class="c cr" x="322" y="66" rx="2" ry="2"/><rect class="c" x="322" y="82" rx="2" ry="2"/><rect class="c" x="322" y="98" rx="2" ry="2"/><rect class="c" x="338" y="2" rx="2" ry="2"/><rect class="c" x="338" y="18" rx="2" ry="2"/><rect class="c" x="338" y="34" rx="2" ry="2"/><rect class="c" x="338" y="50" rx="2" ry="2"/><rect class="c" x="338" y="66" rx="2" ry="2"/><rect class="c" x="338" y="82" rx="2" ry="2"/><rect class="c" x="338" y="98" rx="2" ry="2"/><rect class="c" x="354" y="2" rx="2" ry="2"/><rect class="c" x="354" y="18" rx="2" ry="2"/><rect class="c" x="354" y="34" rx="2" ry="2"/><rect class="c" x="354" y="50" rx="2" ry="2"/><rect class="c" x="354" y="66" rx="2" ry="2"/><rect class="c" x="354" y="82" rx="2" ry="2"/><rect class="c" x="354" y="98" rx="2" ry="2"/><rect class="c" x="370" y="2" rx="2" ry="2"/><rect class="c" x="370" y="18" rx="2" ry="2"/><rect class="c" x="370" y="34" rx="2" ry="2"/><rect class="c" x="370" y="50" rx="2" ry="2"/><rect class="c" x="370" y="66" rx="2" ry="2"/><rect class="c cs" x="370" y="82" rx="2" ry="2"/><rect class="c" x="370" y="98" rx="2" ry="2"/><rect class="c" x="386" y="2" rx="2" ry="2"/><rect class="c" x="386" y="18" rx="2" ry="2"/><rect class="c ct" x="386" y="34" rx="2" ry="2"/><rect class="c" x="386" y="50" rx="2" ry="2"/><rect class="c" x="386" y="66" rx="2" ry="2"/><rect class="c cu" x="386" y="82" rx="2" ry="2"/><rect class="c" x="386" y="98" rx="2" ry="2"/><rect class="c" x="402" y="2" rx="2" ry="2"/><rect class="c" x="402" y="18" rx="2" ry="2"/><rect class="c" x="402" y="34" rx="2" ry="2"/><rect class="c" x="402" y="50" rx="2" ry="2"/><rect class="c" x="402" y="66" rx="2" ry="2"/><rect class="c" x="402" y="82" rx="2" ry="2"/><rect class="c" x="402" y="98" rx="2" ry="2"/><rect class="c" x="418" y="2" rx="2" ry="2"/><rect class="c cv" x="418" y="18" rx="2" ry="2"/><rect class="c" x="418" y="34" rx="2" ry="2"/><rect class="c" x="418" y="50" rx="2" ry="2"/><rect class="c" x="418" y="66" rx="2" ry="2"/><rect class="c cw" x="418" y="82" rx="2" ry="2"/><rect class="c" x="418" y="98" rx="2" ry="2"/><rect class="c" x="434" y="2" rx="2" ry="2"/><rect class="c" x="434" y="18" rx="2" ry="2"/><rect class="c" x="434" y="34" rx="2" ry="2"/><rect class="c" x="434" y="50" rx="2" ry="2"/><rect class="c" x="434" y="66" rx="2" ry="2"/><rect class="c" x="434" y="82" rx="2" ry="2"/><rect class="c" x="434" y="98" rx="2" ry="2"/><rect class="c" x="450" y="2" rx="2" ry="2"/><rect class="c" x="450" y="18" rx="2" ry="2"/><rect class="c" x="450" y="34" rx="2" ry="2"/><rect class="c" x="450" y="50" rx="2" ry="2"/><rect class="c" x="450" y="66" rx="2" ry="2"/><rect class="c cx" x="450" y="82" rx="2" ry="2"/><rect class="c" x="450" y="98" rx="2" ry="2"/><rect class="c" x="466" y="2" rx="2" ry="2"/><rect class="c" x="466" y="18" rx="2" ry="2"/><rect class="c" x="466" y="34" rx="2" ry="2"/><rect class="c" x="466" y="50" rx="2" ry="2"/><rect class="c cy" x="466" y="66" rx="2" ry="2"/><rect class="c cz" x="466" y="82" rx="2" ry="2"/><rect class="c" x="466" y="98" rx="2" ry="2"/><rect class="c" x="482" y="2" rx="2" ry="2"/><rect class="c" x="482" y="18" rx="2" ry="2"/><rect class="c c10" x="482" y="34" rx="2" ry="2"/><rect class="c c11" x="482" y="50" rx="2" ry="2"/><rect class="c c12" x="482" y="66" rx="2" ry="2"/><rect class="c c13" x="482" y="82" rx="2" ry="2"/><rect class="c" x="482" y="98" rx="2" ry="2"/><rect class="c" x="498" y="2" rx="2" ry="2"/><rect class="c c14" x="498" y="18" rx="2" ry="2"/><rect class="c c15" x="498" y="34" rx="2" ry="2"/><rect class="c c16" x="498" y="50" rx="2" ry="2"/><rect class="c c17" x="498" y="66" rx="2" ry="2"/><rect class="c" x="498" y="82" rx="2" ry="2"/><rect class="c c18" x="498" y="98" rx="2" ry="2"/><rect class="c" x="514" y="2" rx="2" ry="2"/><rect class="c c19" x="514" y="18" rx="2" ry="2"/><rect class="c" x="514" y="34" rx="2" ry="2"/><rect class="c c1a" x="514" y="50" rx="2" ry="2"/><rect class="c" x="514" y="66" rx="2" ry="2"/><rect class="c c1b" x="514" y="82" rx="2" ry="2"/><rect class="c" x="514" y="98" rx="2" ry="2"/><rect class="c" x="530" y="2" rx="2" ry="2"/><rect class="c c1c" x="530" y="18" rx="2" ry="2"/><rect class="c" x="530" y="34" rx="2" ry="2"/><rect class="c" x="530" y="50" rx="2" ry="2"/><rect class="c" x="530" y="66" rx="2" ry="2"/><rect class="c" x="530" y="82" rx="2" ry="2"/><rect class="c" x="530" y="98" rx="2" ry="2"/><rect class="c c1d" x="546" y="2" rx="2" ry="2"/><rect class="c" x="546" y="18" rx="2" ry="2"/><rect class="c" x="546" y="34" rx="2" ry="2"/><rect class="c" x="546" y="50" rx="2" ry="2"/><rect class="c" x="546" y="66" rx="2" ry="2"/><rect class="c" x="546" y="82" rx="2" ry="2"/><rect class="c c1e" x="546" y="98" rx="2" ry="2"/><rect class="c c1f" x="562" y="2" rx="2" ry="2"/><rect class="c" x="562" y="18" rx="2" ry="2"/><rect class="c c1g" x="562" y="34" rx="2" ry="2"/><rect class="c" x="562" y="50" rx="2" ry="2"/><rect class="c" x="562" y="66" rx="2" ry="2"/><rect class="c" x="562" y="82" rx="2" ry="2"/><rect class="c c1h" x="562" y="98" rx="2" ry="2"/><rect class="c c1i" x="578" y="2" rx="2" ry="2"/><rect class="c c1j" x="578" y="18" rx="2" ry="2"/><rect class="c c1k" x="578" y="34" rx="2" ry="2"/><rect class="c c1l" x="578" y="50" rx="2" ry="2"/><rect class="c c1m" x="578" y="66" rx="2" ry="2"/><rect class="c" x="578" y="82" rx="2" ry="2"/><rect class="c" x="578" y="98" rx="2" ry="2"/><rect class="c c1n" x="594" y="2" rx="2" ry="2"/><rect class="c" x="594" y="18" rx="2" ry="2"/><rect class="c c1o" x="594" y="34" rx="2" ry="2"/><rect class="c" x="594" y="50" rx="2" ry="2"/><rect class="c c1p" x="594" y="66" rx="2" ry="2"/><rect class="c c1q" x="594" y="82" rx="2" ry="2"/><rect class="c" x="594" y="98" rx="2" ry="2"/><rect class="c c1r" x="610" y="2" rx="2" ry="2"/><rect class="c c1s" x="610" y="18" rx="2" ry="2"/><rect class="c c1t" x="610" y="34" rx="2" ry="2"/><rect class="c c1u" x="610" y="50" rx="2" ry="2"/><rect class="c c1v" x="610" y="66" rx="2" ry="2"/><rect class="c c1w" x="610" y="82" rx="2" ry="2"/><rect class="c" x="610" y="98" rx="2" ry="2"/><rect class="c" x="626" y="2" rx="2" ry="2"/><rect class="c" x="626" y="18" rx="2" ry="2"/><rect class="c" x="626" y="34" rx="2" ry="2"/><rect class="c" x="626" y="50" rx="2" ry="2"/><rect class="c" x="626" y="66" rx="2" ry="2"/><rect class="c" x="626" y="82" rx="2" ry="2"/><rect class="c" x="626" y="98" rx="2" ry="2"/><rect class="c" x="642" y="2" rx="2" ry="2"/><rect class="c c1x" x="642" y="18" rx="2" ry="2"/><rect class="c" x="642" y="34" rx="2" ry="2"/><rect class="c c1y" x="642" y="50" rx="2" ry="2"/><rect class="c c1z" x="642" y="66" rx="2" ry="2"/><rect class="c c20" x="642" y="82" rx="2" ry="2"/><rect class="c c21" x="642" y="98" rx="2" ry="2"/><rect class="c" x="658" y="2" rx="2" ry="2"/><rect class="c" x="658" y="18" rx="2" ry="2"/><rect class="c" x="658" y="34" rx="2" ry="2"/><rect class="c" x="658" y="50" rx="2" ry="2"/><rect class="c" x="658" y="66" rx="2" ry="2"/><rect class="c c22" x="658" y="82" rx="2" ry="2"/><rect class="c c23" x="658" y="98" rx="2" ry="2"/><rect class="c c24" x="674" y="2" rx="2" ry="2"/><rect class="c" x="674" y="18" rx="2" ry="2"/><rect class="c" x="674" y="34" rx="2" ry="2"/><rect class="c" x="674" y="50" rx="2" ry="2"/><rect class="c c25" x="674" y="66" rx="2" ry="2"/><rect class="c" x="674" y="82" rx="2" ry="2"/><rect class="c" x="674" y="98" rx="2" ry="2"/><rect class="c" x="690" y="2" rx="2" ry="2"/><rect class="c c26" x="690" y="18" rx="2" ry="2"/><rect class="c" x="690" y="34" rx="2" ry="2"/><rect class="c" x="690" y="50" rx="2" ry="2"/><rect class="c" x="690" y="66" rx="2" ry="2"/><rect class="c c27" x="690" y="82" rx="2" ry="2"/><rect class="c" x="690" y="98" rx="2" ry="2"/><rect class="c" x="706" y="2" rx="2" ry="2"/><rect class="c c28" x="706" y="18" rx="2" ry="2"/><rect class="c c29" x="706" y="34" rx="2" ry="2"/><rect class="c" x="706" y="50" rx="2" ry="2"/><rect class="c" x="706" y="66" rx="2" ry="2"/><rect class="c" x="706" y="82" rx="2" ry="2"/><rect class="c" x="706" y="98" rx="2" ry="2"/><rect class="c" x="722" y="2" rx="2" ry="2"/><rect class="c" x="722" y="18" rx="2" ry="2"/><rect class="c" x="722" y="34" rx="2" ry="2"/><rect class="c" x="722" y="50" rx="2" ry="2"/><rect class="c" x="722" y="66" rx="2" ry="2"/><rect class="c" x="722" y="82" rx="2" ry="2"/><rect class="c" x="722" y="98" rx="2" ry="2"/><rect class="c" x="738" y="2" rx="2" ry="2"/><rect class="c" x="738" y="18" rx="2" ry="2"/><rect class="c" x="738" y="34" rx="2" ry="2"/><rect class="c" x="738" y="50" rx="2" ry="2"/><rect class="c" x="738" y="66" rx="2" ry="2"/><rect class="c" x="738" y="82" rx="2" ry="2"/><rect class="c" x="738" y="98" rx="2" ry="2"/><rect class="c" x="754" y="2" rx="2" ry="2"/><rect class="c" x="754" y="18" rx="2" ry="2"/><rect class="c" x="754" y="34" rx="2" ry="2"/><rect class="c" x="754" y="50" rx="2" ry="2"/><rect class="c" x="754" y="66" rx="2" ry="2"/><rect class="c" x="754" y="82" rx="2" ry="2"/><rect class="c" x="754" y="98" rx="2" ry="2"/><rect class="c" x="770" y="2" rx="2" ry="2"/><rect class="c" x="770" y="18" rx="2" ry="2"/><rect class="c" x="770" y="34" rx="2" ry="2"/><rect class="c" x="770" y="50" rx="2" ry="2"/><rect class="c" x="770" y="66" rx="2" ry="2"/><rect class="c" x="770" y="82" rx="2" ry="2"/><rect class="c" x="770" y="98" rx="2" ry="2"/><rect class="c c2a" x="786" y="2" rx="2" ry="2"/><rect class="c c2b" x="786" y="18" rx="2" ry="2"/><rect class="c c2c" x="786" y="34" rx="2" ry="2"/><rect class="c c2d" x="786" y="50" rx="2" ry="2"/><rect class="c" x="786" y="66" rx="2" ry="2"/><rect class="c c2e" x="786" y="82" rx="2" ry="2"/><rect class="c c2f" x="786" y="98" rx="2" ry="2"/><rect class="c c2g" x="802" y="2" rx="2" ry="2"/><rect class="c" x="802" y="18" rx="2" ry="2"/><rect class="c" x="802" y="34" rx="2" ry="2"/><rect class="c" x="802" y="50" rx="2" ry="2"/><rect class="c" x="802" y="66" rx="2" ry="2"/><rect class="c" x="802" y="82" rx="2" ry="2"/><rect class="c" x="802" y="98" rx="2" ry="2"/><rect class="c" x="818" y="2" rx="2" ry="2"/><rect class="c" x="818" y="18" rx="2" ry="2"/><rect class="c" x="818" y="34" rx="2" ry="2"/><rect class="c" x="818" y="50" rx="2" ry="2"/><rect class="c" x="818" y="66" rx="2" ry="2"/><rect class="c" x="818" y="82" rx="2" ry="2"/><rect class="c" x="818" y="98" rx="2" ry="2"/><rect class="c c2h" x="834" y="2" rx="2" ry="2"/><rect class="c c2i" x="834" y="18" rx="2" ry="2"/><rect class="c c2j" x="834" y="34" rx="2" ry="2"/><rect class="c" x="834" y="50" rx="2" ry="2"/><rect class="c" x="834" y="66" rx="2" ry="2"/><rect class="c" x="834" y="82" rx="2" ry="2"/><rect class="c" x="834" y="98" rx="2" ry="2"/><rect class="u u0" height="12" width="673.5" x="0.0" y="144"/><rect class="u u1" height="12" width="111.2" x="672.9" y="144"/><rect class="u u2" height="12" width="19.0" x="783.5" y="144"/><rect class="u u3" height="12" width="46.7" x="801.9" y="144"/><rect class="s s0" x="0.8" y="0.8" width="14.4" height="14.4" rx="4.5" ry="4.5"/><rect class="s s1" x="1.8" y="1.8" width="12.3" height="12.3" rx="4.1" ry="4.1"/><rect class="s s2" x="2.6" y="2.6" width="10.8" height="10.8" rx="3.6" ry="3.6"/><rect class="s s3" x="3.0" y="3.0" width="9.9" height="9.9" rx="3.3" ry="3.3"/></svg>